<svg width="16" height="17" viewBox="0 0 16 17" fill="none" xmlns="http://www.w3.org/2000/svg">
<path d="M8.88393 8.43333L15.8169 1.6516C16.061 1.41283 16.061 1.02572 15.8169 0.786984C15.5729 0.548249 15.1771 0.548219 14.933 0.786984L7.99999 7.56872L1.06697 0.786984C0.822881 0.548219 0.427132 0.548219 0.18307 0.786984C-0.0609921 1.02575 -0.0610233 1.41286 0.18307 1.6516L7.11609 8.4333L0.18307 15.215C-0.0610233 15.4538 -0.0610233 15.8409 0.18307 16.0796C0.305101 16.199 0.465069 16.2587 0.625038 16.2587C0.785006 16.2587 0.944944 16.199 1.06701 16.0796L7.99999 9.29794L14.933 16.0796C15.055 16.199 15.215 16.2587 15.375 16.2587C15.5349 16.2587 15.6949 16.199 15.8169 16.0796C16.061 15.8409 16.061 15.4538 15.8169 15.215L8.88393 8.43333Z" fill="#464646"/>
</svg>
