<svg width="16" height="13" viewBox="0 0 16 13" fill="none" xmlns="http://www.w3.org/2000/svg">
<rect width="1.4047" height="14.8535" transform="matrix(0.714865 -0.699263 0.714865 0.699263 2 1.60919)" fill="#464646"/>
<path fill-rule="evenodd" clip-rule="evenodd" d="M7.24566 4.78422C6.41307 5.08503 5.81836 5.86897 5.81836 6.78701C5.81836 7.96439 6.79653 8.92121 8.00018 8.92121C8.9387 8.92121 9.74013 8.33948 10.0477 7.52506L7.24566 4.78422ZM10.0945 6.18752C9.88616 5.49156 9.32452 4.94219 8.61304 4.7384L10.0945 6.18752Z" fill="#464646"/>
<path fill-rule="evenodd" clip-rule="evenodd" d="M4.55748 2.15447C2.48172 3.04482 0.834526 4.71565 0 6.7871C1.25819 9.91014 4.36364 12.1226 8.00002 12.1226C9.90363 12.1226 11.6601 11.5175 13.0826 10.4935L11.1355 8.58892C10.5031 9.63898 9.33524 10.3441 8.00002 10.3441C5.99274 10.3441 4.36364 8.75053 4.36364 6.78707C4.36364 5.48099 5.08449 4.3386 6.15799 3.72005L4.55748 2.15447ZM11.5405 7.6017C11.6032 7.34008 11.6364 7.06736 11.6364 6.7871C11.6364 4.82364 10.0073 3.23009 8.00002 3.23009C7.71351 3.23009 7.4347 3.26255 7.16724 3.32393L5.59483 1.78583C6.35794 1.56827 7.16498 1.4516 8.00002 1.4516C11.64 1.4516 14.7418 3.66403 16 6.7871C15.5248 7.96677 14.7865 9.01651 13.8555 9.86617L11.5405 7.6017Z" fill="#464646"/>
</svg>
